<svg width="24" height="20" viewBox="0 0 24 20" fill="none" xmlns="http://www.w3.org/2000/svg">
<path d="M6.62133 2.59985L7.67084 0H8.86346L7.81395 2.74984C7.74239 3.01649 7.38461 3.19981 7.05067 3.13315C6.71674 3.06649 6.54977 2.84983 6.62133 2.59985Z" fill="url(#paint0_linear)"/>
<path d="M17.3313 2.59985L16.3533 0H15.1846L16.1625 2.74984C16.2341 3.01649 16.5919 3.19981 16.9258 3.13315C17.2359 3.06649 17.4028 2.84983 17.3313 2.59985Z" fill="url(#paint1_linear)"/>
<path opacity="0.2" d="M8.52966 0.166657L7.55171 2.69984C7.504 2.84983 7.33703 2.96649 7.14622 2.96649H7.07466C6.90769 2.93316 6.78843 2.79983 6.83613 2.64984L7.83794 0.166657H8.52966ZM8.83974 0H7.64712L6.59761 2.59985C6.52605 2.84983 6.71687 3.06649 7.0031 3.11648C7.05081 3.11648 7.09851 3.13315 7.12236 3.13315C7.40859 3.13315 7.69482 2.96649 7.76638 2.73317L8.83974 0Z" fill="#EEEEEE"/>
<path opacity="0.2" d="M16.1625 0.166657L17.0928 2.63318C17.1405 2.78317 17.0451 2.93316 16.8542 2.96649H16.7827C16.5919 2.96649 16.4249 2.84983 16.3772 2.69984L15.4708 0.166657H16.1625ZM16.3533 0H15.1846L16.1625 2.74984C16.2341 2.98316 16.4965 3.14981 16.8065 3.14981C16.8542 3.14981 16.9019 3.14981 16.9496 3.13315C17.2597 3.08315 17.4267 2.84983 17.3551 2.61651C17.3313 2.59985 16.3533 0 16.3533 0Z" fill="black"/>
<path d="M23.8904 17.2324L15.5421 7.3663L17.3072 3.04989C17.5457 2.58325 17.0448 2.06661 16.3292 2.08328C15.7806 2.08328 11.9881 3.98317 11.9881 3.98317C11.9881 3.98317 8.19554 2.06661 7.62308 2.08328C6.95521 2.09994 6.47817 2.59991 6.69284 3.04989L8.43406 7.3663L0.109572 17.2324C-0.0573948 17.3824 -0.0335426 17.5824 0.181129 17.699C1.65998 18.549 6.69284 19.9989 12.0358 19.9989C17.3787 19.9989 22.3639 18.5656 23.8189 17.7157C24.0335 17.5824 24.0574 17.3824 23.8904 17.2324Z" fill="url(#paint2_linear)"/>
<path opacity="0.2" d="M10.7961 18.4656L12.0126 6.98297V7.0163L13.2052 18.4656C13.3006 19.3322 12.7759 19.9655 12.0603 19.9989C11.3447 20.0322 10.7484 19.3156 10.7961 18.4656Z" fill="black"/>
<path opacity="0.2" d="M3.40114 17.2656L10.533 7.21619L10.5092 7.24952L5.61941 17.8989C5.26163 18.6988 4.42679 19.1488 3.73507 18.9822C3.09106 18.8155 2.92409 18.0322 3.40114 17.2656Z" fill="black"/>
<path opacity="0.2" d="M20.79 17.2656L13.6343 7.21619L13.6581 7.24952L18.5479 17.8989C18.9057 18.6988 19.7405 19.1488 20.4322 18.9822C21.1001 18.8155 21.267 18.0322 20.79 17.2656Z" fill="black"/>
<path d="M15.5419 7.36629H8.45771L7.88525 5.94971H16.1143L15.5419 7.36629Z" fill="black"/>
<defs>
<linearGradient id="paint0_linear" x1="7.73428" y1="-0.146991" x2="7.73428" y2="3.17198" gradientUnits="userSpaceOnUse">
<stop offset="0.561"/>
<stop offset="0.802"/>
<stop offset="1"/>
</linearGradient>
<linearGradient id="paint1_linear" x1="16.2663" y1="0" x2="16.2663" y2="3.05682" gradientUnits="userSpaceOnUse">
<stop offset="0.561"/>
<stop offset="0.802"/>
<stop offset="1"/>
</linearGradient>
<linearGradient id="paint2_linear" x1="12" y1="3.80318" x2="12" y2="19.8722" gradientUnits="userSpaceOnUse">
<stop/>
<stop offset="1"/>
</linearGradient>
</defs>
</svg>
