<svg width="24" height="20" viewBox="0 0 24 20" fill="none" xmlns="http://www.w3.org/2000/svg">
<path d="M10.0098 0C8.52092 0 7.47138 0.878462 7.47138 2.11538C7.47138 3.47692 8.76185 4.36231 10.0098 5.21615C10.4178 5.49538 10.8166 5.77615 11.1923 6.08154H4.61538C3.40062 6.08154 2.39169 6.73615 2.01877 7.64385C2.01877 7.64385 2.20708 9.15846 5.07692 9.15846C7.74462 9.15846 7.84338 8.02769 7.84615 7.98077C7.85234 7.88262 7.90383 7.79027 7.98985 7.72303C8.07587 7.65579 8.18976 7.61887 8.30769 7.62C8.42885 7.62327 8.54398 7.66484 8.6297 7.73627C8.71542 7.80771 8.76531 7.90365 8.76923 8.00462C8.77292 8.04385 8.90308 9.15846 12 9.15846C15.0969 9.15846 15.2262 8.02769 15.2308 7.98077C15.2409 7.87958 15.2975 7.78555 15.3889 7.71833C15.4802 7.65111 15.5992 7.61588 15.7209 7.62C15.8391 7.6242 15.9506 7.66682 16.0315 7.73871C16.1125 7.81061 16.1564 7.90606 16.1538 8.00462C16.1557 8.04538 16.2369 9.15846 18.9231 9.15846C21.8797 9.15846 21.9812 7.64385 21.9812 7.64385C21.6083 6.73692 20.5975 6.08154 19.3846 6.08154H12.8077C13.1834 5.77615 13.5812 5.49538 13.9902 5.21615C15.2372 4.36231 16.5286 3.47615 16.5286 2.11538C16.5286 0.878462 15.48 0 13.9902 0C13.1317 0 12.4052 0.512308 12 0.865385C11.5966 0.511538 10.8674 0 10.0098 0ZM8.33538 8.94231C7.88492 9.43154 6.96185 9.92769 5.07692 9.92769C3.22615 9.92769 2.30677 9.44692 1.84615 8.96615V12.2354H22.1538V8.96615C21.6932 9.44308 20.7711 9.92769 18.9231 9.92769C17.0308 9.92769 16.1132 9.43 15.6637 8.94231C15.1523 9.42923 14.1092 9.92769 12 9.92769C9.88338 9.92769 8.84492 9.43154 8.33631 8.94231H8.33538ZM2.76923 13.0046C1.55446 13.0046 0.545538 13.6592 0.172615 14.5669C0.173538 14.5669 0.360923 16.0815 3.23077 16.0815C5.89846 16.0815 6.92031 14.9508 6.92308 14.9038C6.92926 14.8057 6.98075 14.7133 7.06677 14.6461C7.15279 14.5789 7.26668 14.5419 7.38462 14.5431C7.50578 14.5463 7.62091 14.5879 7.70663 14.6594C7.79235 14.7308 7.84223 14.8267 7.84615 14.9277C7.84985 14.9669 8.90308 16.0815 12 16.0815C15.0969 16.0815 16.1492 14.9508 16.1538 14.9038C16.164 14.8027 16.2206 14.7086 16.312 14.6414C16.4033 14.5742 16.5222 14.539 16.644 14.5431C16.7622 14.5473 16.8737 14.5899 16.9546 14.6618C17.0355 14.7337 17.0794 14.8291 17.0769 14.9277C17.0788 14.9685 18.0831 16.0815 20.7692 16.0815C23.7258 16.0815 23.8274 14.5669 23.8274 14.5669C23.4545 13.66 22.4437 13.0046 21.2308 13.0046H2.76923ZM7.41323 15.8654C6.96185 16.3546 5.11569 16.8508 3.23077 16.8508C1.38 16.8508 0.460615 16.37 0 15.8892V18.3892C0 19.6631 1.24062 19.9277 2.76923 19.9277H21.2308C22.7594 19.9277 24 19.6631 24 18.3892V15.8892C23.5394 16.3662 22.6172 16.8508 20.7692 16.8508C18.8769 16.8508 17.0363 16.3531 16.5868 15.8654C16.0754 16.3523 14.1092 16.8508 12 16.8508C9.88338 16.8508 7.92185 16.3546 7.41323 15.8654Z" fill="black"/>
</svg>
