<svg width="24" height="20" viewBox="0 0 24 20" fill="none" xmlns="http://www.w3.org/2000/svg">
<path d="M21.7778 3.07692H18L17.1 0.582418C17.0378 0.411726 16.9239 0.264181 16.7737 0.159938C16.6236 0.0556961 16.4446 -0.00016006 16.2611 3.44513e-07H7.73889C7.36389 3.44513e-07 7.02778 0.233517 6.90278 0.582418L6 3.07692H2.22222C0.994444 3.07692 0 4.06044 0 5.27473V17.8022C0 19.0165 0.994444 20 2.22222 20H21.7778C23.0056 20 24 19.0165 24 17.8022V5.27473C24 4.06044 23.0056 3.07692 21.7778 3.07692ZM12 15.6044C9.54444 15.6044 7.55556 13.6374 7.55556 11.2088C7.55556 8.78022 9.54444 6.81319 12 6.81319C14.4556 6.81319 16.4444 8.78022 16.4444 11.2088C16.4444 13.6374 14.4556 15.6044 12 15.6044ZM9.33333 11.2088C9.33333 11.9083 9.61428 12.5791 10.1144 13.0737C10.6145 13.5683 11.2928 13.8462 12 13.8462C12.7072 13.8462 13.3855 13.5683 13.8856 13.0737C14.3857 12.5791 14.6667 11.9083 14.6667 11.2088C14.6667 10.5093 14.3857 9.8385 13.8856 9.34389C13.3855 8.84929 12.7072 8.57143 12 8.57143C11.2928 8.57143 10.6145 8.84929 10.1144 9.34389C9.61428 9.8385 9.33333 10.5093 9.33333 11.2088Z" fill="black"/>
</svg>
