<svg width="24" height="16" viewBox="0 0 24 16" fill="none" xmlns="http://www.w3.org/2000/svg">
<path d="M6.74544 2.5C6.29574 2.5 5.99594 2.8 5.99594 3V5.5H4.49696V3C4.49696 2.7 4.19716 2.5 3.74746 2.5C3.29777 2.5 2.99797 2.8 2.99797 3V5.5H1.49899V3C1.49899 2.7 1.19919 2.5 0.749493 2.5C0.299797 2.5 0 2.8 0 3V6.3C0 7.2 1.04929 7.9 2.24848 8V15C2.24848 15.6 2.84807 16 3.74746 16C4.64686 16 5.24645 15.6 5.24645 15V8C6.44564 7.9 7.49493 7.2 7.49493 6.3V3C7.49493 2.8 7.19513 2.5 6.74544 2.5ZM9.74341 3V9H11.2424V15C11.2424 15.6 11.842 16 12.7414 16C13.6408 16 14.2404 15.6 14.2404 15V0C11.6921 0 9.74341 1.3 9.74341 3ZM20.2363 2C18.1377 2 16.4888 3.5 16.4888 5.3C16.3389 6.5 17.2383 7.6 18.7373 8.3V15C18.7373 15.6 19.3369 16 20.2363 16C21.1357 16 21.7353 15.6 21.7353 15V8.3C23.2343 7.6 24.1337 6.5 23.9838 5.3C23.9838 3.5 22.3349 2 20.2363 2Z" fill="black"/>
</svg>
