<svg width="24" height="20" viewBox="0 0 24 20" fill="none" xmlns="http://www.w3.org/2000/svg">
<path d="M16.2213 15.3752C16.8901 14.8479 16.5293 13.6369 15.4367 12.2379C15.8338 12.1883 16.205 12.1124 16.4858 11.9962C17.496 11.5786 18.1782 10.8176 18.6945 10.0303C19.2496 9.18586 19.6221 8.25759 20.3465 7.48862C20.4688 7.35862 20.5911 7.24207 20.7129 7.13241C22.2757 7.28241 23.5233 7.55138 23.5233 7.55138L24 6.58138C23.3983 6.40846 22.7813 6.27165 22.1543 6.17207C22.5384 5.99724 22.789 5.94276 22.789 5.94276L22.3373 4.96483C21.613 5.21 21.0251 5.57172 20.5329 6.00483C18.6932 5.92241 16.8406 6.21586 15.379 7.12345C14.28 7.80621 13.5376 8.75276 12.8391 9.69966C12.2202 9.21334 11.5611 8.76093 10.8663 8.34552C10.9981 8.17207 11.1394 8.01621 11.2914 7.89586C12.2099 7.17172 13.4218 6.70862 14.2167 5.88C15.8876 4.14 14.6654 1.41241 13.2908 0C13.0445 0.19 12.6371 0.466897 12.3305 0.685517C13.7917 1.88379 14.8136 3.98172 13.6685 5.54931C13.0286 6.42552 11.846 6.97517 11.0192 7.72793C10.8762 7.85862 10.7483 8.02414 10.6325 8.2069C8.47026 6.96517 6.48587 6.46552 5.69952 7.08552C5.62144 7.14948 5.55712 7.22335 5.50918 7.30414L5.50616 7.30172L5.48506 7.35104C5.45578 7.40448 5.42908 7.46 5.41099 7.52069L0 20L15.7881 15.58L15.7838 15.5766C15.9535 15.5328 16.1029 15.4683 16.2213 15.3752ZM3.14066 18.3903L1.8229 17.8986L2.71217 15.8469L6.79076 17.3683L3.14066 18.3903ZM10.4404 16.3466L3.6023 13.7952L4.49158 11.7438L9.60155 13.7976C6.55133 12.2079 5.38085 9.69172 5.38085 9.69172L5.68488 8.99069C6.22533 10.0855 7.41433 11.449 9.04818 12.7359C10.6958 14.0345 12.4421 14.9752 13.8378 15.3955L10.4404 16.3466ZM13.0669 9.88448C13.7809 9.06483 14.5169 8.23759 15.5401 7.64897C16.5142 7.08828 18.0955 6.98586 19.5946 7.0531C19.0881 7.76138 18.7139 8.54724 18.378 9.30207C17.9719 10.2159 17.4276 11.1634 16.3897 11.7238C16.1098 11.8748 15.7175 11.9852 15.2985 12.0669C14.7227 11.3603 13.9674 10.6134 13.0669 9.88448Z" fill="black"/>
</svg>
