<svg width="24" height="20" viewBox="0 0 24 20" fill="none" xmlns="http://www.w3.org/2000/svg">
<path d="M22.9718 0H6.5108C6.23822 7.28756e-05 5.97682 0.0926429 5.78408 0.257361C5.59133 0.422079 5.48301 0.645464 5.48293 0.878411V14.0942C5.1087 14.0229 4.72652 13.9866 4.34311 13.9858C1.94442 13.9858 0 15.3319 0 16.9931C0 18.6539 1.94442 20 4.34311 20C6.74146 20 8.68621 18.6539 8.68621 16.9931V4.2972H20.7967V11.5557C20.4225 11.4844 20.0403 11.4481 19.6569 11.4474C17.2582 11.4474 15.3138 12.7935 15.3138 14.4546C15.3138 16.1157 17.2582 17.4615 19.6569 17.4615C22.0553 17.4615 24 16.1155 24 14.4546V0.878686C23.9999 0.645666 23.8916 0.422211 23.6988 0.257442C23.506 0.0926718 23.2445 7.28756e-05 22.9718 0Z" fill="black"/>
</svg>
