<svg width="24" height="20" viewBox="0 0 24 20" fill="none" xmlns="http://www.w3.org/2000/svg">
<path fill-rule="evenodd" clip-rule="evenodd" d="M1.5 5.54219V17.5904C1.5 17.9099 1.65804 18.2164 1.93934 18.4423C2.22064 18.6683 2.60218 18.7952 3 18.7952H21C21.3978 18.7952 21.7794 18.6683 22.0607 18.4423C22.342 18.2164 22.5 17.9099 22.5 17.5904V5.54219H1.5ZM3 1.92773C2.20435 1.92773 1.44129 2.18161 0.87868 2.6335C0.316071 3.0854 0 3.6983 0 4.33737L0 17.5904C0 18.2295 0.316071 18.8424 0.87868 19.2943C1.44129 19.7462 2.20435 20 3 20H21C21.7956 20 22.5587 19.7462 23.1213 19.2943C23.6839 18.8424 24 18.2295 24 17.5904V4.33737C24 3.6983 23.6839 3.0854 23.1213 2.6335C22.5587 2.18161 21.7956 1.92773 21 1.92773H3Z" fill="black"/>
<path fill-rule="evenodd" clip-rule="evenodd" d="M3.0125 0C3.28103 0 3.53856 0.0571212 3.72845 0.158798C3.91833 0.260474 4.025 0.398377 4.025 0.542169V1.08434C4.025 1.22813 3.91833 1.36603 3.72845 1.46771C3.53856 1.56938 3.28103 1.62651 3.0125 1.62651C2.74397 1.62651 2.48644 1.56938 2.29655 1.46771C2.10667 1.36603 2 1.22813 2 1.08434V0.542169C2 0.398377 2.10667 0.260474 2.29655 0.158798C2.48644 0.0571212 2.74397 0 3.0125 0V0ZM21.2375 0C21.506 0 21.7636 0.0571212 21.9534 0.158798C22.1433 0.260474 22.25 0.398377 22.25 0.542169V1.08434C22.25 1.22813 22.1433 1.36603 21.9534 1.46771C21.7636 1.56938 21.506 1.62651 21.2375 1.62651C20.969 1.62651 20.7114 1.56938 20.5216 1.46771C20.3317 1.36603 20.225 1.22813 20.225 1.08434V0.542169C20.225 0.398377 20.3317 0.260474 20.5216 0.158798C20.7114 0.0571212 20.969 0 21.2375 0V0Z" fill="black"/>
<path d="M21.2377 6.50604H19.2127C18.6535 6.50604 18.2002 6.74878 18.2002 7.04821V8.13255C18.2002 8.43198 18.6535 8.67472 19.2127 8.67472H21.2377C21.7969 8.67472 22.2502 8.43198 22.2502 8.13255V7.04821C22.2502 6.74878 21.7969 6.50604 21.2377 6.50604Z" fill="black"/>
</svg>
