<svg width="24" height="22" viewBox="0 0 24 22" fill="none" xmlns="http://www.w3.org/2000/svg">
<path d="M12 11C11.9432 11.0312 11.6278 11.1615 11.054 11.3906C10.4801 11.6198 10.1477 11.7656 10.0568 11.8281C10.4886 12.4219 10.9034 12.9323 11.3011 13.3594C11.1989 13.5677 11.0511 14.0521 10.858 14.8125C10.6648 15.5729 10.4574 16.4479 10.2358 17.4375C10.0142 18.4271 9.89773 18.9427 9.88636 18.9844C9.875 18.9531 9.75568 18.9115 9.52841 18.8594C9.30114 18.8073 9.05966 18.7109 8.80398 18.5703C8.5483 18.4297 8.38068 18.2344 8.30114 17.9844C8.11932 17.4219 7.96591 16.5781 7.84091 15.4531C7.71591 14.3281 7.61932 13.3255 7.55114 12.4453C7.48295 11.5651 7.40909 11.0781 7.32955 10.9844C7.25 11.0156 7.07102 11.099 6.79261 11.2344C6.5142 11.3698 6.22727 11.4896 5.93182 11.5938C5.59091 11.7083 5.125 11.8646 4.53409 12.0625C3.94318 12.2604 3.47727 12.4193 3.13636 12.5391C2.79545 12.6589 2.41761 12.8021 2.00284 12.9688C1.58807 13.1354 1.25284 13.3047 0.997159 13.4766C0.741477 13.6484 0.545455 13.8229 0.409091 14C0.136364 14.6667 0 17.3333 0 22H24C24 20.8333 23.9688 19.3125 23.9062 17.4375C23.8438 15.5625 23.7386 14.4167 23.5909 14C23.4545 13.8229 23.2585 13.6484 23.0028 13.4766C22.7472 13.3047 22.4119 13.1354 21.9972 12.9688C21.5824 12.8021 21.2045 12.6589 20.8636 12.5391C20.5227 12.4193 20.0568 12.2604 19.4659 12.0625C18.875 11.8646 18.4091 11.7083 18.0682 11.5938C17.7727 11.4896 17.4858 11.3698 17.2074 11.2344C16.929 11.099 16.75 11.0156 16.6705 10.9844C16.5909 11.0781 16.5256 11.5651 16.4744 12.4453C16.4233 13.3255 16.3438 14.3281 16.2358 15.4531C16.1278 16.5781 15.983 17.4219 15.8011 17.9844C15.7216 18.2344 15.554 18.4297 15.2983 18.5703C15.0426 18.7109 14.8011 18.8073 14.5739 18.8594C14.3466 18.9115 14.2273 18.9531 14.2159 18.9844C13.5114 15.8281 13.0057 13.9531 12.6989 13.3594C13.0966 12.9323 13.5114 12.4219 13.9432 11.8281C13.8523 11.7656 13.5199 11.6198 12.946 11.3906C12.3722 11.1615 12.0568 11.0312 12 11ZM12 0C13.5114 0 14.7983 0.486979 15.8608 1.46094C16.9233 2.4349 17.4545 3.61458 17.4545 5C17.4545 6.38542 16.9233 7.5651 15.8608 8.53906C14.7983 9.51302 13.5114 10 12 10C10.4886 10 9.2017 9.51302 8.1392 8.53906C7.0767 7.5651 6.54545 6.38542 6.54545 5C6.54545 3.61458 7.0767 2.4349 8.1392 1.46094C9.2017 0.486979 10.4886 0 12 0ZM16.6364 5.03125C16.1932 5.11458 15.5597 5.07552 14.7358 4.91406C13.9119 4.7526 13.2159 4.5625 12.6477 4.34375C12.2614 4.1875 11.892 4.00781 11.5398 3.80469C11.1875 3.60156 10.7841 3.34635 10.3295 3.03906C9.875 2.73177 9.52273 2.50521 9.27273 2.35938C9.45455 3.59896 8.81818 4.48438 7.36364 5.01562C7.375 6.19271 7.83239 7.19271 8.7358 8.01562C9.6392 8.83854 10.7273 9.25 12 9.25C13.2727 9.25 14.3608 8.83854 15.2642 8.01562C16.1676 7.19271 16.625 6.19792 16.6364 5.03125Z" fill="black"/>
</svg>
