<svg width="24" height="20" viewBox="0 0 24 20" fill="none" xmlns="http://www.w3.org/2000/svg">
<path d="M21.3333 18V7H2.66667V18H21.3333ZM17.3333 0H20V2H21.3333C22.0406 2 22.7189 2.21071 23.219 2.58579C23.719 2.96086 24 3.46957 24 4V18C24 18.5304 23.719 19.0391 23.219 19.4142C22.7189 19.7893 22.0406 20 21.3333 20H2.66667C1.95942 20 1.28115 19.7893 0.781048 19.4142C0.280951 19.0391 0 18.5304 0 18V4C0 3.46957 0.280951 2.96086 0.781048 2.58579C1.28115 2.21071 1.95942 2 2.66667 2H4V0H6.66667V2H17.3333V0ZM12 16.17L11.2267 15.64C8.48 13.77 6.66667 12.54 6.66667 11.03C6.66667 9.8 7.96 8.83 9.6 8.83C10.5333 8.83 11.4133 9.15 12 9.66C12.5867 9.15 13.4667 8.83 14.4 8.83C16.04 8.83 17.3333 9.8 17.3333 11.03C17.3333 12.54 15.52 13.77 12.7733 15.64L12 16.17Z" fill="black"/>
</svg>
