<svg width="24" height="20" viewBox="0 0 24 20" fill="none" xmlns="http://www.w3.org/2000/svg">
<path d="M20.2875 8.25937C19.56 7.91484 18.6511 8.17031 18.2574 8.79375L16.3177 12.091C16.2813 12.1534 16.2179 12.202 16.1402 12.2269C16.0624 12.2518 15.9763 12.2511 15.8991 12.225C15.838 12.2047 15.7856 12.1696 15.7487 12.1242C15.7119 12.0787 15.6922 12.0251 15.6924 11.9703V2.8125C15.6924 2.26914 15.09 1.875 14.4375 1.875C13.785 1.875 13.2188 2.26914 13.2188 2.8125V8.93125C13.2204 9.04552 13.1684 9.1558 13.074 9.23866C12.9795 9.32152 12.85 9.37043 12.713 9.375C12.6445 9.37609 12.5764 9.36578 12.5127 9.34468C12.449 9.32357 12.391 9.29209 12.342 9.25208C12.2931 9.21208 12.2542 9.16434 12.2277 9.11166C12.2012 9.05899 12.1875 9.00244 12.1875 8.94531V0.9375C12.1875 0.394141 11.6747 0 11.0222 0C10.3697 0 9.84379 0.394141 9.84379 0.9375V8.93125C9.84537 9.04552 9.79341 9.1558 9.69897 9.23866C9.60453 9.32152 9.47504 9.37043 9.33801 9.375C9.26948 9.37609 9.20137 9.36578 9.13767 9.34468C9.07397 9.32357 9.01596 9.29209 8.96703 9.25208C8.9181 9.21208 8.87924 9.16434 8.85271 9.11166C8.82619 9.05899 8.81253 9.00244 8.81254 8.94531V2.1875C8.81254 1.64414 8.24629 1.25 7.59379 1.25C6.94129 1.25 6.37504 1.6832 6.37504 2.22656V9.55625C6.37662 9.67052 6.32466 9.7808 6.23022 9.86366C6.13578 9.94652 6.00629 9.99543 5.86926 10C5.80073 10.0011 5.73262 9.99078 5.66892 9.96968C5.60522 9.94857 5.54721 9.91709 5.49828 9.87708C5.44935 9.83708 5.41049 9.78934 5.38396 9.73666C5.35744 9.68399 5.34378 9.62744 5.34379 9.57031V4.6875C5.34379 4.14414 4.82442 3.75 4.17192 3.75C3.51942 3.75 2.99442 4.14922 3.00004 4.6875V13.125C3.00004 17.7113 6.37504 20 10.5 20H11.25C15.375 20 16.6739 18.4531 17.625 16.5625L20.8458 9.96094C21.1561 9.25781 21.0146 8.60352 20.2875 8.25937Z" fill="black"/>
</svg>
