<svg width="24" height="20" viewBox="0 0 24 20" fill="none" xmlns="http://www.w3.org/2000/svg">
<path fill-rule="evenodd" clip-rule="evenodd" d="M2 20C2 20 0 20 0 18.3333C0 16.6667 2 11.6667 12 11.6667C22 11.6667 24 16.6667 24 18.3333C24 20 22 20 22 20H2ZM12 10C13.5913 10 15.1174 9.47322 16.2426 8.53553C17.3679 7.59785 18 6.32608 18 5C18 3.67392 17.3679 2.40215 16.2426 1.46447C15.1174 0.526784 13.5913 0 12 0C10.4087 0 8.88258 0.526784 7.75736 1.46447C6.63214 2.40215 6 3.67392 6 5C6 6.32608 6.63214 7.59785 7.75736 8.53553C8.88258 9.47322 10.4087 10 12 10Z" fill="black"/>
</svg>
