<svg width="24" height="20" viewBox="0 0 24 20" fill="none" xmlns="http://www.w3.org/2000/svg">
<path d="M19.1109 5.98667L16.1931 7.40667C17.5163 7.88556 18.6191 8.58392 19.3884 9.43015C20.1578 10.2764 20.5661 11.24 20.5714 12.2222C20.5714 15.2844 16.7246 17.7778 12 17.7778C7.27543 17.7778 3.42857 15.2844 3.42857 12.2222C3.42857 10.1511 5.208 8.36222 7.80686 7.40667L4.88914 5.98667C3.37661 6.70457 2.14592 7.64307 1.29658 8.72631C0.44724 9.80955 0.00307644 11.0071 0 12.2222C-2.34822e-08 13.2436 0.310389 14.255 0.913445 15.1987C1.5165 16.1423 2.40042 16.9997 3.51472 17.7219C4.62902 18.4442 5.95189 19.0171 7.4078 19.408C8.86371 19.7988 10.4241 20 12 20C13.5759 20 15.1363 19.7988 16.5922 19.408C18.0481 19.0171 19.371 18.4442 20.4853 17.7219C21.5996 16.9997 22.4835 16.1423 23.0866 15.1987C23.6896 14.255 24 13.2436 24 12.2222C23.9969 11.0071 23.5528 9.80955 22.7034 8.72631C21.8541 7.64307 20.6234 6.70457 19.1109 5.98667ZM18.8571 3.33333L15.4286 0H8.57143L5.14286 3.33333L12 6.66667L18.8571 3.33333Z" fill="black"/>
</svg>
