<svg width="24" height="24" viewBox="0 0 24 24" fill="none" xmlns="http://www.w3.org/2000/svg">
<path d="M12 0L8.30769 3.69231V7.38461H15.6923V3.69231L12 0ZM8.30769 8.30769L5.53846 11.0769H18.4615L15.6923 8.30769H8.30769ZM1.84615 12C1.35652 12 0.886947 12.1945 0.540726 12.5407C0.194505 12.8869 0 13.3565 0 13.8462V24H3.69231V13.8462C3.69231 13.3565 3.4978 12.8869 3.15158 12.5407C2.80536 12.1945 2.33578 12 1.84615 12ZM5.53846 12V24H18.4615V12H5.53846ZM22.1538 12C21.6642 12 21.1946 12.1945 20.8484 12.5407C20.5022 12.8869 20.3077 13.3565 20.3077 13.8462V24H24V13.8462C24 13.3565 23.8055 12.8869 23.4593 12.5407C23.1131 12.1945 22.6435 12 22.1538 12Z" fill="black"/>
</svg>
